<svg width="36" height="36" viewBox="0 0 36 36" fill="none" xmlns="http://www.w3.org/2000/svg">
<path d="M0 18C0 8.05888 8.05888 0 18 0C27.9411 0 36 8.05888 36 18C36 27.9411 27.9411 36 18 36C8.05888 36 0 27.9411 0 18Z" fill="#E8E8E8"/>
<path fill-rule="evenodd" clip-rule="evenodd" d="M26 17.9992C26 18.5515 25.5522 18.9992 24.9999 18.9992L13.4148 18.9984L18.2072 23.7922C18.5977 24.1828 18.5976 24.8159 18.207 25.2064C17.8164 25.5969 17.1833 25.5968 16.7928 25.2062L9.58687 17.9981L16.7929 10.7921C17.1834 10.4015 17.8166 10.4015 18.2071 10.7921C18.5976 11.1826 18.5976 11.8158 18.2071 12.2063L13.415 16.9984L25.0001 16.9992C25.5524 16.9992 26 17.447 26 17.9992Z" fill="#424242"/>
</svg>
