<svg width="36" height="36" viewBox="0 0 36 36" fill="none" xmlns="http://www.w3.org/2000/svg">
<path d="M0 18C0 8.05888 8.05888 0 18 0C27.9411 0 36 8.05888 36 18C36 27.9411 27.9411 36 18 36C8.05888 36 0 27.9411 0 18Z" fill="#E8E8E8"/>
<path fill-rule="evenodd" clip-rule="evenodd" d="M10.3244 10.3244C10.757 9.89185 11.4584 9.89185 11.8909 10.3244L18 16.4335L24.1091 10.3244C24.5416 9.89185 25.243 9.89185 25.6756 10.3244C26.1081 10.757 26.1081 11.4584 25.6756 11.8909L19.5665 18L25.6756 24.1091C26.1081 24.5416 26.1081 25.243 25.6756 25.6756C25.243 26.1081 24.5416 26.1081 24.1091 25.6756L18 19.5665L11.8909 25.6756C11.4584 26.1081 10.757 26.1081 10.3244 25.6756C9.89185 25.243 9.89185 24.5416 10.3244 24.1091L16.4335 18L10.3244 11.8909C9.89185 11.4584 9.89185 10.757 10.3244 10.3244Z" fill="#424242"/>
</svg>
