<svg viewBox="0 0 80 18" fill="none" xmlns="http://www.w3.org/2000/svg">
<path d="M17.8528 3.07422C13.5631 3.07422 11.3242 5.52736 11.3242 10.1975C11.3242 14.7277 13.3488 17.2377 17.7173 17.2377C22.007 17.2377 24.2721 14.7846 24.2721 10.1144C24.2764 5.55797 22.2518 3.07422 17.8528 3.07422ZM17.8528 13.9712C16.4754 13.9712 15.5615 13.2978 15.5615 10.0882C15.5615 7.09282 16.4535 6.3407 17.7173 6.3407C19.3614 6.3407 20.0348 7.3377 20.0348 10.2237C20.0392 13.0573 19.4183 13.9712 17.8528 13.9712Z" fill="#00BCB4"/>
<path d="M9.90002 13.1884H4.91065C4.50836 13.1884 4.15416 12.8385 4.15416 12.4319V0.214267C4.15416 0.10932 4.07108 0 3.93989 0H0.240504C0.10932 0 0 0.10932 0 0.214267V13.7831C0 15.5365 1.42991 16.9665 3.1834 16.9665H9.90002C10.0356 16.9665 10.1405 16.8571 10.1405 16.7522V13.4332C10.1405 13.2977 10.0356 13.1884 9.90002 13.1884Z" fill="#00BCB4"/>
<path d="M48.0925 3.31883H44.4499C44.3144 3.31883 44.2051 3.42815 44.2051 3.5637V12.1431C44.2051 13.0877 43.2081 14.0059 41.8875 14.0059C40.6456 14.0059 40.1077 13.3063 40.1077 11.9551V3.55933C40.1077 3.42377 39.9984 3.31445 39.8629 3.31445H36.1941C36.0585 3.31445 35.9492 3.42377 35.9492 3.55933V12.2699C35.9492 15.4533 37.812 17.2331 40.7768 17.2331C42.3947 17.2331 43.4748 16.6952 44.2838 16.1268C44.4456 16.0174 44.5811 16.048 44.6598 16.2361L44.8479 16.7739C44.9003 16.9095 44.9572 16.962 45.0884 16.962H48.0837C48.2455 16.962 48.3548 16.8526 48.3548 16.7215V3.55933C48.3636 3.42377 48.2543 3.31883 48.0925 3.31883Z" fill="#00BCB4"/>
<path d="M33.9151 13.442C33.8539 13.2758 33.644 13.2539 33.4997 13.337C33.0405 13.6475 32.459 13.8793 31.8118 13.8793C31.0203 13.8793 30.6224 13.5251 30.6224 12.6286V6.7516C30.6224 6.6073 30.7273 6.48049 30.8935 6.48049H33.7708C33.9151 6.48049 34.0419 6.3974 34.0419 6.23124V3.56383C34.0419 3.39766 33.9151 3.31458 33.7708 3.31458H30.8935C30.7273 3.31458 30.6224 3.18777 30.6224 3.06533V0.249249C30.6224 0.104947 30.5218 0 30.3731 0H28.2042C28.0599 0 27.955 0.0830831 27.9331 0.249249C27.7888 2.1864 26.3502 3.27523 25.0383 3.31458C24.8721 3.31458 24.7891 3.41953 24.7891 3.56383V6.23124C24.7891 6.3974 24.9159 6.48049 25.0383 6.48049H26.2496C26.3939 6.48049 26.5207 6.6073 26.5207 6.7516V12.6505C26.5207 15.6502 27.8763 17.2332 30.9809 17.2332C33.0012 17.2332 34.2955 16.6691 34.7722 16.3586C34.8552 16.2974 34.8771 16.1925 34.8552 16.0875L33.9151 13.442Z" fill="#00BCB4"/>
<path d="M49.8715 15.1475C49.7666 15.0426 49.7884 14.9201 49.8715 14.7933L51.437 12.3533C51.5201 12.209 51.6862 12.2483 51.7912 12.3096C53.0637 13.2497 54.3536 13.9362 55.836 13.9362C56.317 13.9362 57.1697 13.7919 57.1697 13.0398C57.1697 12.4757 56.1684 12.0603 55.0839 11.728C53.2298 11.142 50.7067 10.2456 50.7067 7.41203C50.7067 5.28685 52.5214 3.07422 56.0459 3.07422C58.193 3.07422 59.9027 3.74326 61.1315 4.88893C61.2583 5.01574 61.1927 5.16004 61.1315 5.24313L59.2774 7.53885C59.1943 7.64379 59.0282 7.5782 58.9232 7.51698C58.4641 7.224 57.3184 6.41066 55.9628 6.41066C55.2982 6.41066 54.8565 6.70364 54.8565 7.20214C54.8565 7.78372 55.836 8.13792 56.9642 8.53584C58.8183 9.20488 61.302 9.99636 61.302 12.8081C61.302 14.9332 59.5485 17.2071 55.6524 17.2071C53.4397 17.2115 51.144 16.3325 49.8715 15.1475Z" fill="#00BCB4"/>
<path d="M68.0532 15.1475C67.9482 15.0426 67.9701 14.9201 68.0532 14.7933L69.6186 12.3533C69.7017 12.209 69.8679 12.2483 69.9728 12.3096C71.2453 13.2497 72.5353 13.9362 74.0177 13.9362C74.4987 13.9362 75.3514 13.7919 75.3514 13.0398C75.3514 12.4757 74.35 12.0603 73.2655 11.728C71.4115 11.142 68.8884 10.2456 68.8884 7.41203C68.8884 5.28685 70.7031 3.07422 74.2276 3.07422C76.3746 3.07422 78.0844 3.74326 79.3131 4.88893C79.4399 5.01574 79.3743 5.16004 79.3131 5.24313L77.4591 7.53885C77.376 7.64379 77.2098 7.5782 77.1049 7.51698C76.6457 7.224 75.5 6.41066 74.1445 6.41066C73.4798 6.41066 73.0382 6.70364 73.0382 7.20214C73.0382 7.78372 74.0177 8.13792 75.1458 8.53584C76.9999 9.20488 79.4837 9.99636 79.4837 12.8081C79.4837 14.9332 77.7302 17.2071 73.834 17.2071C71.617 17.2115 69.3257 16.3325 68.0532 15.1475Z" fill="#F9BE00"/>
<path d="M65.3328 0C63.6274 0 62.25 1.3818 62.25 3.08282C62.25 3.65129 62.4031 4.1804 62.6698 4.63517L64.9262 8.26896C65.0136 8.40452 65.1623 8.49197 65.3328 8.49197C65.5034 8.49197 65.652 8.40452 65.7395 8.26896L67.9959 4.63517C68.2626 4.1804 68.4156 3.64691 68.4156 3.08282C68.4156 1.3818 67.0338 0 65.3328 0Z" fill="#F9BE00"/>
</svg>
