<svg width="16" height="16" viewBox="0 0 16 16" fill="none" xmlns="http://www.w3.org/2000/svg">
<path d="M4 6.23698V1.57031H12V6.23698" stroke="#424242" stroke-width="1.67" stroke-linecap="round" stroke-linejoin="round"/>
<path d="M4.00065 12.2373H2.66732C2.3137 12.2373 1.97456 12.0968 1.72451 11.8468C1.47446 11.5967 1.33398 11.2576 1.33398 10.904V7.57064C1.33398 7.21702 1.47446 6.87788 1.72451 6.62783C1.97456 6.37778 2.3137 6.2373 2.66732 6.2373H13.334C13.6876 6.2373 14.0267 6.37778 14.2768 6.62783C14.5268 6.87788 14.6673 7.21702 14.6673 7.57064V10.904C14.6673 11.2576 14.5268 11.5967 14.2768 11.8468C14.0267 12.0968 13.6876 12.2373 13.334 12.2373H12.0007" stroke="#424242" stroke-width="1.67" stroke-linecap="round" stroke-linejoin="round"/>
<path d="M12 9.57031H4V14.9036H12V9.57031Z" stroke="#424242" stroke-width="1.67" stroke-linecap="round" stroke-linejoin="round"/>
</svg>
