<svg width="16" height="17" viewBox="0 0 16 17" fill="none" xmlns="http://www.w3.org/2000/svg">
<g clip-path="url(#clip0_4168_20883)">
<path d="M10.666 2.9043H11.9993C12.353 2.9043 12.6921 3.04477 12.9422 3.29482C13.1922 3.54487 13.3327 3.88401 13.3327 4.23763V13.571C13.3327 13.9246 13.1922 14.2637 12.9422 14.5138C12.6921 14.7638 12.353 14.9043 11.9993 14.9043H3.99935C3.64573 14.9043 3.30659 14.7638 3.05654 14.5138C2.80649 14.2637 2.66602 13.9246 2.66602 13.571V4.23763C2.66602 3.88401 2.80649 3.54487 3.05654 3.29482C3.30659 3.04477 3.64573 2.9043 3.99935 2.9043H5.33268" stroke="#424242" stroke-width="1.67" stroke-linecap="round" stroke-linejoin="round"/>
<path d="M10.0006 1.57031H6.00065C5.63246 1.57031 5.33398 1.86879 5.33398 2.23698V3.57031C5.33398 3.9385 5.63246 4.23698 6.00065 4.23698H10.0006C10.3688 4.23698 10.6673 3.9385 10.6673 3.57031V2.23698C10.6673 1.86879 10.3688 1.57031 10.0006 1.57031Z" stroke="#424242" stroke-width="1.67" stroke-linecap="round" stroke-linejoin="round"/>
</g>
<defs>
<clipPath id="clip0_4168_20883">
<rect width="16" height="16" fill="white" transform="translate(0 0.237305)"/>
</clipPath>
</defs>
</svg>
